<?xml version="1.0" standalone="no"?>
<svg xmlns="http://www.w3.org/2000/svg" xmlns:xlink="http://www.w3.org/1999/xlink" width="341pt" height="260pt" viewBox="0.00 0.00 341.00 260.00">
<g id="graph0" class="graph" transform="translate(4,256) scale(1)" data-name="">
<polygon fill="white" stroke="none" points="-4,4 -4,-256 337,-256 337,4 -4,4"/>
<!-- 11 -->
<g id="node1" class="node" pointer-events="visible" data-name="11">

<ellipse fill="none" stroke="black" cx="135" cy="-234" rx="27" ry="18"/>
<text text-anchor="middle" x="135" y="-229.8" font-family="Times,serif" font-size="14.00">11</text>
</g>
<!-- 6 -->
<g id="node2" class="node" pointer-events="visible" data-name="6">

<ellipse fill="none" stroke="red" cx="99" cy="-162" rx="27" ry="18"/>
<text text-anchor="middle" x="99" y="-157.8" font-family="Times,serif" font-size="14.00">6</text>
</g>
<!-- 11&#45;&gt;6 -->
<g id="edge1" class="edge" data-name="11-&gt;6">

<path fill="none" stroke="black" d="M126.65,-216.76C122.42,-208.55 117.19,-198.37 112.42,-189.09"/>
<polygon fill="black" stroke="black" points="115.68,-187.79 108,-180.49 109.46,-190.99 115.68,-187.79"/>
</g>
<!-- 23 -->
<g id="node3" class="node" pointer-events="visible" data-name="23">

<ellipse fill="none" stroke="red" cx="198" cy="-162" rx="27" ry="18"/>
<text text-anchor="middle" x="198" y="-157.8" font-family="Times,serif" font-size="14.00">23</text>
</g>
<!-- 11&#45;&gt;23 -->
<g id="edge2" class="edge" data-name="11-&gt;23">

<path fill="none" stroke="black" d="M148.36,-218.15C156.71,-208.87 167.65,-196.73 177.13,-186.19"/>
<polygon fill="black" stroke="black" points="179.56,-188.72 183.65,-178.95 174.35,-184.04 179.56,-188.72"/>
</g>
<!-- 0 -->
<g id="node4" class="node" pointer-events="visible" data-name="0">

<ellipse fill="none" stroke="black" cx="27" cy="-90" rx="27" ry="18"/>
<text text-anchor="middle" x="27" y="-85.8" font-family="Times,serif" font-size="14.00">0</text>
</g>
<!-- 6&#45;&gt;0 -->
<g id="edge3" class="edge" data-name="6-&gt;0">

<path fill="none" stroke="black" d="M84.08,-146.5C74.23,-136.92 61.14,-124.19 49.97,-113.34"/>
<polygon fill="black" stroke="black" points="52.59,-111 42.98,-106.54 47.71,-116.02 52.59,-111"/>
</g>
<!-- 10 -->
<g id="node5" class="node" pointer-events="visible" data-name="10">

<ellipse fill="none" stroke="black" cx="99" cy="-90" rx="27" ry="18"/>
<text text-anchor="middle" x="99" y="-85.8" font-family="Times,serif" font-size="14.00">10</text>
</g>
<!-- 6&#45;&gt;10 -->
<g id="edge4" class="edge" data-name="6-&gt;10">

<path fill="none" stroke="black" d="M99,-143.7C99,-136.41 99,-127.73 99,-119.54"/>
<polygon fill="black" stroke="black" points="102.5,-119.62 99,-109.62 95.5,-119.62 102.5,-119.62"/>
</g>
<!-- 15 -->
<g id="node7" class="node" pointer-events="visible" data-name="15">

<ellipse fill="none" stroke="black" cx="171" cy="-90" rx="27" ry="18"/>
<text text-anchor="middle" x="171" y="-85.8" font-family="Times,serif" font-size="14.00">15</text>
</g>
<!-- 23&#45;&gt;15 -->
<g id="edge6" class="edge" data-name="23-&gt;15">

<path fill="none" stroke="black" d="M191.46,-144.05C188.48,-136.32 184.87,-126.96 181.52,-118.27"/>
<polygon fill="black" stroke="black" points="184.88,-117.27 178.02,-109.2 178.35,-119.79 184.88,-117.27"/>
</g>
<!-- 26 -->
<g id="node8" class="node" pointer-events="visible" data-name="26">

<ellipse fill="none" stroke="black" cx="281" cy="-90" rx="27" ry="18"/>
<text text-anchor="middle" x="281" y="-85.8" font-family="Times,serif" font-size="14.00">26</text>
</g>
<!-- 23&#45;&gt;26 -->
<g id="edge7" class="edge" data-name="23-&gt;26">

<path fill="none" stroke="rgb(0, 0, 255)" d="M214.4,-147.17C225.65,-137.68 240.85,-124.86 253.89,-113.86" stroke-width="3"/>
<polygon fill="blue" stroke="blue" stroke-width="3" points="255.78,-116.85 261.16,-107.73 251.26,-111.5 255.78,-116.85"/>
</g>
<!-- 3 -->
<g id="node6" class="node" pointer-events="visible" data-name="3">

<ellipse fill="none" stroke="red" cx="27" cy="-18" rx="27" ry="18"/>
<text text-anchor="middle" x="27" y="-13.8" font-family="Times,serif" font-size="14.00">3</text>
</g>
<!-- 0&#45;&gt;3 -->
<g id="edge5" class="edge" data-name="0-&gt;3">

<path fill="none" stroke="black" d="M27,-71.7C27,-64.41 27,-55.73 27,-47.54"/>
<polygon fill="black" stroke="black" points="30.5,-47.62 27,-37.62 23.5,-47.62 30.5,-47.62"/>
</g>
<!-- 20 -->
<g id="node9" class="node" pointer-events="visible" data-name="20">

<ellipse fill="none" stroke="red" cx="162" cy="-18" rx="27" ry="18"/>
<text text-anchor="middle" x="162" y="-13.8" font-family="Times,serif" font-size="14.00">20</text>
</g>
<!-- 15&#45;&gt;20 -->
<g id="edge8" class="edge" data-name="15-&gt;20">

<path fill="none" stroke="black" d="M168.78,-71.7C167.83,-64.32 166.7,-55.52 165.63,-47.25"/>
<polygon fill="black" stroke="black" points="169.14,-47.08 164.39,-37.61 162.2,-47.97 169.14,-47.08"/>
</g>
<!-- 13 -->
<g id="node10" class="node" pointer-events="visible" data-name="13">

<ellipse fill="none" stroke="black" cx="234" cy="-18" rx="27" ry="18"/>
<text text-anchor="middle" x="234" y="-13.8" font-family="Times,serif" font-size="14.00">13</text>
</g>
<!-- 26&#45;&gt;13 -->
<g id="edge9" class="edge" data-name="26-&gt;13">

<path fill="none" stroke="blue" stroke-width="3" d="M270.33,-73.12C265.11,-65.33 258.66,-55.72 252.65,-46.77"/>
<polygon fill="blue" stroke="blue" stroke-width="3" points="255.63,-44.94 247.15,-38.59 249.82,-48.84 255.63,-44.94"/>
</g>
<!-- 27 -->
<g id="node11" class="node" pointer-events="visible" data-name="27">

<ellipse fill="none" stroke="red" cx="306" cy="-18" rx="27" ry="18"/>
<text text-anchor="middle" x="306" y="-13.8" font-family="Times,serif" font-size="14.00">27</text>
</g>
<!-- 26&#45;&gt;27 -->
<g id="edge10" class="edge" data-name="26-&gt;27">

<path fill="none" stroke="black" d="M287.05,-72.05C289.78,-64.4 293.08,-55.16 296.16,-46.56"/>
<polygon fill="black" stroke="black" points="299.43,-47.81 299.49,-37.21 292.84,-45.45 299.43,-47.81"/>
</g>
<!-- 13&#45;&gt;23 -->
<g id="edge11" class="edge" data-name="13-&gt;23">

<path fill="none" stroke="rgb(0, 0, 255)" d="M229.64,-36.19C223.77,-59.36 213.21,-101.01 205.91,-129.79" stroke-width="3"/>
<polygon fill="blue" stroke="blue" stroke-width="3" points="202.52,-128.92 203.46,-139.47 209.31,-130.64 202.52,-128.92"/>
</g>
</g>
</svg>