<?xml version="1.0" encoding="UTF-8" standalone="no"?>
<!DOCTYPE svg PUBLIC "-//W3C//DTD SVG 1.1//EN"
 "http://www.w3.org/Graphics/SVG/1.1/DTD/svg11.dtd">
<!-- Generated by graphviz version 2.40.1 (20161225.0304)
 -->
<!-- Title: %0 Pages: 1 -->
<svg width="341pt" height="260pt"
 viewBox="0.00 0.00 341.00 260.00" xmlns="http://www.w3.org/2000/svg" xmlns:xlink="http://www.w3.org/1999/xlink">
<g id="graph0" class="graph" transform="scale(1 1) rotate(0) translate(4 256)">
<title>%0</title>
<polygon fill="#ffffff" stroke="transparent" points="-4,4 -4,-256 337,-256 337,4 -4,4"/>
<!-- 11 -->
<g id="node1" class="node">
<title>11</title>
<ellipse fill="none" stroke="#000000" cx="135" cy="-234" rx="27" ry="18"/>
<text text-anchor="middle" x="135" y="-229.8" font-family="Times,serif" font-size="14.00" fill="#000000">11</text>
</g>
<!-- 6 -->
<g id="node2" class="node">
<title>6</title>
<ellipse fill="none" stroke="#ff0000" cx="99" cy="-162" rx="27" ry="18"/>
<text text-anchor="middle" x="99" y="-157.8" font-family="Times,serif" font-size="14.00" fill="#000000">6</text>
</g>
<!-- 11&#45;&gt;6 -->
<g id="edge1" class="edge">
<title>11&#45;&gt;6</title>
<path fill="none" stroke="#000000" d="M126.2854,-216.5708C122.0403,-208.0807 116.8464,-197.6929 112.1337,-188.2674"/>
<polygon fill="#000000" stroke="#000000" points="115.237,-186.6477 107.6343,-179.2687 108.976,-189.7782 115.237,-186.6477"/>
</g>
<!-- 23 -->
<g id="node3" class="node">
<title>23</title>
<ellipse fill="none" stroke="#ff0000" cx="198" cy="-162" rx="27" ry="18"/>
<text text-anchor="middle" x="198" y="-157.8" font-family="Times,serif" font-size="14.00" fill="#000000">23</text>
</g>
<!-- 11&#45;&gt;23 -->
<g id="edge2" class="edge">
<title>11&#45;&gt;23</title>
<path fill="none" stroke="#000000" d="M148.6701,-218.3771C157.1734,-208.659 168.2613,-195.987 177.7708,-185.1191"/>
<polygon fill="#000000" stroke="#000000" points="180.4056,-187.423 184.3566,-177.5924 175.1375,-182.8135 180.4056,-187.423"/>
</g>
<!-- 0 -->
<g id="node4" class="node">
<title>0</title>
<ellipse fill="none" stroke="#000000" cx="27" cy="-90" rx="27" ry="18"/>
<text text-anchor="middle" x="27" y="-85.8" font-family="Times,serif" font-size="14.00" fill="#000000">0</text>
</g>
<!-- 6&#45;&gt;0 -->
<g id="edge3" class="edge">
<title>6&#45;&gt;0</title>
<path fill="none" stroke="#000000" d="M83.7307,-146.7307C73.803,-136.803 60.6847,-123.6847 49.5637,-112.5637"/>
<polygon fill="#000000" stroke="#000000" points="51.7933,-109.8436 42.2473,-105.2473 46.8436,-114.7933 51.7933,-109.8436"/>
</g>
<!-- 10 -->
<g id="node5" class="node">
<title>10</title>
<ellipse fill="none" stroke="#000000" cx="99" cy="-90" rx="27" ry="18"/>
<text text-anchor="middle" x="99" y="-85.8" font-family="Times,serif" font-size="14.00" fill="#000000">10</text>
</g>
<!-- 6&#45;&gt;10 -->
<g id="edge4" class="edge">
<title>6&#45;&gt;10</title>
<path fill="none" stroke="#000000" d="M99,-143.8314C99,-136.131 99,-126.9743 99,-118.4166"/>
<polygon fill="#000000" stroke="#000000" points="102.5001,-118.4132 99,-108.4133 95.5001,-118.4133 102.5001,-118.4132"/>
</g>
<!-- 15 -->
<g id="node7" class="node">
<title>15</title>
<ellipse fill="none" stroke="#000000" cx="171" cy="-90" rx="27" ry="18"/>
<text text-anchor="middle" x="171" y="-85.8" font-family="Times,serif" font-size="14.00" fill="#000000">15</text>
</g>
<!-- 23&#45;&gt;15 -->
<g id="edge6" class="edge">
<title>23&#45;&gt;15</title>
<path fill="none" stroke="#000000" d="M191.3258,-144.2022C188.2524,-136.0064 184.5384,-126.1024 181.1305,-117.0145"/>
<polygon fill="#000000" stroke="#000000" points="184.3858,-115.7274 177.5974,-107.593 177.8315,-118.1853 184.3858,-115.7274"/>
</g>
<!-- 26 -->
<g id="node8" class="node">
<title>26</title>
<ellipse fill="none" stroke="#000000" cx="281" cy="-90" rx="27" ry="18"/>
<text text-anchor="middle" x="281" y="-85.8" font-family="Times,serif" font-size="14.00" fill="#000000">26</text>
</g>
<!-- 23&#45;&gt;26 -->
<g id="edge7" class="edge">
<title>23&#45;&gt;26</title>
<path fill="none" stroke="#000000" d="M214.7963,-147.4297C226.7998,-137.017 243.1387,-122.8435 256.5811,-111.1827"/>
<polygon fill="#000000" stroke="#000000" points="259.2515,-113.4996 264.5119,-104.3029 254.6646,-108.2118 259.2515,-113.4996"/>
</g>
<!-- 3 -->
<g id="node6" class="node">
<title>3</title>
<ellipse fill="none" stroke="#ff0000" cx="27" cy="-18" rx="27" ry="18"/>
<text text-anchor="middle" x="27" y="-13.8" font-family="Times,serif" font-size="14.00" fill="#000000">3</text>
</g>
<!-- 0&#45;&gt;3 -->
<g id="edge5" class="edge">
<title>0&#45;&gt;3</title>
<path fill="none" stroke="#000000" d="M27,-71.8314C27,-64.131 27,-54.9743 27,-46.4166"/>
<polygon fill="#000000" stroke="#000000" points="30.5001,-46.4132 27,-36.4133 23.5001,-46.4133 30.5001,-46.4132"/>
</g>
<!-- 20 -->
<g id="node9" class="node">
<title>20</title>
<ellipse fill="none" stroke="#ff0000" cx="162" cy="-18" rx="27" ry="18"/>
<text text-anchor="middle" x="162" y="-13.8" font-family="Times,serif" font-size="14.00" fill="#000000">20</text>
</g>
<!-- 15&#45;&gt;20 -->
<g id="edge8" class="edge">
<title>15&#45;&gt;20</title>
<path fill="none" stroke="#000000" d="M168.7289,-71.8314C167.7664,-64.131 166.6218,-54.9743 165.5521,-46.4166"/>
<polygon fill="#000000" stroke="#000000" points="169.0151,-45.9019 164.3017,-36.4133 162.0691,-46.7702 169.0151,-45.9019"/>
</g>
<!-- 13 -->
<g id="node10" class="node">
<title>13</title>
<ellipse fill="none" stroke="#000000" cx="234" cy="-18" rx="27" ry="18"/>
<text text-anchor="middle" x="234" y="-13.8" font-family="Times,serif" font-size="14.00" fill="#000000">13</text>
</g>
<!-- 26&#45;&gt;13 -->
<g id="edge9" class="edge">
<title>26&#45;&gt;13</title>
<path fill="none" stroke="#000000" d="M270.0991,-73.3008C264.2264,-64.3043 256.8634,-53.0247 250.3213,-43.0029"/>
<polygon fill="#000000" stroke="#000000" points="253.2389,-41.0693 244.8418,-34.6087 247.3772,-44.8957 253.2389,-41.0693"/>
</g>
<!-- 27 -->
<g id="node11" class="node">
<title>27</title>
<ellipse fill="none" stroke="#ff0000" cx="306" cy="-18" rx="27" ry="18"/>
<text text-anchor="middle" x="306" y="-13.8" font-family="Times,serif" font-size="14.00" fill="#000000">27</text>
</g>
<!-- 26&#45;&gt;27 -->
<g id="edge10" class="edge">
<title>26&#45;&gt;27</title>
<path fill="none" stroke="#000000" d="M287.1798,-72.2022C289.9953,-64.0936 293.3913,-54.3129 296.5191,-45.3049"/>
<polygon fill="#000000" stroke="#000000" points="299.9175,-46.1878 299.8913,-35.593 293.3048,-43.8917 299.9175,-46.1878"/>
</g>
<!-- 13&#45;&gt;23 -->
<g id="edge11" class="edge">
<title>13&#45;&gt;23</title>
<path fill="none" stroke="#000000" d="M229.4568,-36.1727C223.2826,-60.8697 212.1851,-105.2595 204.9579,-134.1684"/>
<polygon fill="#000000" stroke="#000000" points="201.5166,-133.5031 202.4866,-144.0535 208.3076,-135.2009 201.5166,-133.5031"/>
</g>
</g>
</svg>
